<mxfile host="Electron" modified="2023-07-12T10:06:44.784Z" agent="Mozilla/5.0 (Macintosh; Intel Mac OS X 10_15_7) AppleWebKit/537.36 (KHTML, like Gecko) draw.io/21.3.7 Chrome/112.0.5615.204 Electron/24.5.0 Safari/537.36" etag="Q8rNsXUuURL2AFgA5EJW" version="21.3.7" type="device">
  <diagram id="QqnPoe2dKmuLvNGkM8AR" name="Страница 2">
    <mxGraphModel dx="2788" dy="2554" grid="0" gridSize="10" guides="1" tooltips="1" connect="1" arrows="1" fold="1" page="0" pageScale="1" pageWidth="827" pageHeight="1169" math="0" shadow="0">
      <root>
        <mxCell id="0" />
        <mxCell id="1" parent="0" />
        <mxCell id="1bQ7xXCI_m404nSx6LuV-2" value="&amp;lt;&amp;lt;Interface&amp;gt;&amp;gt;&lt;br&gt;&lt;b&gt;IAndroidProjectRepository&lt;/b&gt;" style="swimlane;fontStyle=0;childLayout=stackLayout;horizontal=1;startSize=30;horizontalStack=0;resizeParent=1;resizeParentMax=0;resizeLast=0;collapsible=1;marginBottom=0;whiteSpace=wrap;html=1;" vertex="1" parent="1">
          <mxGeometry x="130" y="110" width="350" height="90" as="geometry" />
        </mxCell>
        <mxCell id="1bQ7xXCI_m404nSx6LuV-3" value="+ createNewProject(projectConfig: ProjectConfig): FilePath" style="text;strokeColor=none;fillColor=none;align=left;verticalAlign=middle;spacingLeft=4;spacingRight=4;overflow=hidden;points=[[0,0.5],[1,0.5]];portConstraint=eastwest;rotatable=0;whiteSpace=wrap;html=1;" vertex="1" parent="1bQ7xXCI_m404nSx6LuV-2">
          <mxGeometry y="30" width="350" height="30" as="geometry" />
        </mxCell>
        <mxCell id="GmFk4hsLB5Go_FKo_Ru6-91" value="+ downloadProject(filePath: FilePath): File" style="text;strokeColor=none;fillColor=none;align=left;verticalAlign=middle;spacingLeft=4;spacingRight=4;overflow=hidden;points=[[0,0.5],[1,0.5]];portConstraint=eastwest;rotatable=0;whiteSpace=wrap;html=1;" vertex="1" parent="1bQ7xXCI_m404nSx6LuV-2">
          <mxGeometry y="60" width="350" height="30" as="geometry" />
        </mxCell>
        <mxCell id="1bQ7xXCI_m404nSx6LuV-6" value="&lt;b&gt;AndroidProjectRepository&lt;/b&gt;" style="swimlane;fontStyle=0;childLayout=stackLayout;horizontal=1;startSize=30;horizontalStack=0;resizeParent=1;resizeParentMax=0;resizeLast=0;collapsible=1;marginBottom=0;whiteSpace=wrap;html=1;" vertex="1" parent="1">
          <mxGeometry x="140" y="260" width="320" height="60" as="geometry" />
        </mxCell>
        <mxCell id="1bQ7xXCI_m404nSx6LuV-7" value="- service: lAndroidProjectService" style="text;strokeColor=none;fillColor=none;align=left;verticalAlign=middle;spacingLeft=4;spacingRight=4;overflow=hidden;points=[[0,0.5],[1,0.5]];portConstraint=eastwest;rotatable=0;whiteSpace=wrap;html=1;" vertex="1" parent="1bQ7xXCI_m404nSx6LuV-6">
          <mxGeometry y="30" width="320" height="30" as="geometry" />
        </mxCell>
        <mxCell id="1bQ7xXCI_m404nSx6LuV-10" value="&amp;lt;&amp;lt;Interface&amp;gt;&amp;gt;&lt;br&gt;&lt;b&gt;lAndroidProjectService&lt;/b&gt;" style="swimlane;fontStyle=0;childLayout=stackLayout;horizontal=1;startSize=30;horizontalStack=0;resizeParent=1;resizeParentMax=0;resizeLast=0;collapsible=1;marginBottom=0;whiteSpace=wrap;html=1;" vertex="1" parent="1">
          <mxGeometry x="120" y="420" width="500" height="120" as="geometry" />
        </mxCell>
        <mxCell id="1bQ7xXCI_m404nSx6LuV-11" value="+ getNewTemplate Project(): FilePathDto" style="text;strokeColor=none;fillColor=none;align=left;verticalAlign=middle;spacingLeft=4;spacingRight=4;overflow=hidden;points=[[0,0.5],[1,0.5]];portConstraint=eastwest;rotatable=0;whiteSpace=wrap;html=1;" vertex="1" parent="1bQ7xXCI_m404nSx6LuV-10">
          <mxGeometry y="30" width="500" height="30" as="geometry" />
        </mxCell>
        <mxCell id="1bQ7xXCI_m404nSx6LuV-12" value="+ setBuildSrcConfig(projectPath: FilePathDto, buildSrc: BuildSrcDto): Unit" style="text;strokeColor=none;fillColor=none;align=left;verticalAlign=middle;spacingLeft=4;spacingRight=4;overflow=hidden;points=[[0,0.5],[1,0.5]];portConstraint=eastwest;rotatable=0;whiteSpace=wrap;html=1;" vertex="1" parent="1bQ7xXCI_m404nSx6LuV-10">
          <mxGeometry y="60" width="500" height="30" as="geometry" />
        </mxCell>
        <mxCell id="1bQ7xXCI_m404nSx6LuV-13" value="+ setLibsVersionsConfig (projectPath: FilePathDto, libsVersions: Libs VersionsDto): Unit" style="text;strokeColor=none;fillColor=none;align=left;verticalAlign=middle;spacingLeft=4;spacingRight=4;overflow=hidden;points=[[0,0.5],[1,0.5]];portConstraint=eastwest;rotatable=0;whiteSpace=wrap;html=1;" vertex="1" parent="1bQ7xXCI_m404nSx6LuV-10">
          <mxGeometry y="90" width="500" height="30" as="geometry" />
        </mxCell>
        <mxCell id="1bQ7xXCI_m404nSx6LuV-14" value="&lt;b&gt;AndroidProjectService&lt;/b&gt;" style="swimlane;fontStyle=0;childLayout=stackLayout;horizontal=1;startSize=30;horizontalStack=0;resizeParent=1;resizeParentMax=0;resizeLast=0;collapsible=1;marginBottom=0;whiteSpace=wrap;html=1;" vertex="1" parent="1">
          <mxGeometry x="210" y="620" width="210" height="60" as="geometry" />
        </mxCell>
        <mxCell id="1bQ7xXCI_m404nSx6LuV-18" value="&lt;b&gt;FilePath&lt;/b&gt;" style="swimlane;fontStyle=0;childLayout=stackLayout;horizontal=1;startSize=30;horizontalStack=0;resizeParent=1;resizeParentMax=0;resizeLast=0;collapsible=1;marginBottom=0;whiteSpace=wrap;html=1;" vertex="1" parent="1">
          <mxGeometry x="580" y="120" width="140" height="60" as="geometry" />
        </mxCell>
        <mxCell id="1bQ7xXCI_m404nSx6LuV-19" value="+ filePath: String" style="text;strokeColor=none;fillColor=none;align=left;verticalAlign=middle;spacingLeft=4;spacingRight=4;overflow=hidden;points=[[0,0.5],[1,0.5]];portConstraint=eastwest;rotatable=0;whiteSpace=wrap;html=1;" vertex="1" parent="1bQ7xXCI_m404nSx6LuV-18">
          <mxGeometry y="30" width="140" height="30" as="geometry" />
        </mxCell>
        <mxCell id="1bQ7xXCI_m404nSx6LuV-22" value="&lt;b&gt;ProjectConfig&lt;/b&gt;" style="swimlane;fontStyle=0;childLayout=stackLayout;horizontal=1;startSize=30;horizontalStack=0;resizeParent=1;resizeParentMax=0;resizeLast=0;collapsible=1;marginBottom=0;whiteSpace=wrap;html=1;" vertex="1" parent="1">
          <mxGeometry x="580" y="240" width="170" height="90" as="geometry" />
        </mxCell>
        <mxCell id="1bQ7xXCI_m404nSx6LuV-23" value="+ buildSrc: BuildSrc" style="text;strokeColor=none;fillColor=none;align=left;verticalAlign=middle;spacingLeft=4;spacingRight=4;overflow=hidden;points=[[0,0.5],[1,0.5]];portConstraint=eastwest;rotatable=0;whiteSpace=wrap;html=1;" vertex="1" parent="1bQ7xXCI_m404nSx6LuV-22">
          <mxGeometry y="30" width="170" height="30" as="geometry" />
        </mxCell>
        <mxCell id="1bQ7xXCI_m404nSx6LuV-24" value="+ libsVersions: LibsVersions" style="text;strokeColor=none;fillColor=none;align=left;verticalAlign=middle;spacingLeft=4;spacingRight=4;overflow=hidden;points=[[0,0.5],[1,0.5]];portConstraint=eastwest;rotatable=0;whiteSpace=wrap;html=1;" vertex="1" parent="1bQ7xXCI_m404nSx6LuV-22">
          <mxGeometry y="60" width="170" height="30" as="geometry" />
        </mxCell>
        <mxCell id="1bQ7xXCI_m404nSx6LuV-26" value="&lt;b&gt;FilePathDto&lt;/b&gt;" style="swimlane;fontStyle=0;childLayout=stackLayout;horizontal=1;startSize=30;horizontalStack=0;resizeParent=1;resizeParentMax=0;resizeLast=0;collapsible=1;marginBottom=0;whiteSpace=wrap;html=1;" vertex="1" parent="1">
          <mxGeometry x="660" y="390" width="140" height="60" as="geometry" />
        </mxCell>
        <mxCell id="1bQ7xXCI_m404nSx6LuV-27" value="+ path: String" style="text;strokeColor=none;fillColor=none;align=left;verticalAlign=middle;spacingLeft=4;spacingRight=4;overflow=hidden;points=[[0,0.5],[1,0.5]];portConstraint=eastwest;rotatable=0;whiteSpace=wrap;html=1;" vertex="1" parent="1bQ7xXCI_m404nSx6LuV-26">
          <mxGeometry y="30" width="140" height="30" as="geometry" />
        </mxCell>
        <mxCell id="1bQ7xXCI_m404nSx6LuV-30" value="&lt;b&gt;BuildSrcDto&lt;/b&gt;" style="swimlane;fontStyle=0;childLayout=stackLayout;horizontal=1;startSize=30;horizontalStack=0;resizeParent=1;resizeParentMax=0;resizeLast=0;collapsible=1;marginBottom=0;whiteSpace=wrap;html=1;" vertex="1" parent="1">
          <mxGeometry x="660" y="470" width="180" height="260" as="geometry" />
        </mxCell>
        <mxCell id="GmFk4hsLB5Go_FKo_Ru6-3" value="+sourceJavaVersion: String&lt;br style=&quot;border-color: var(--border-color); font-size: 14px;&quot;&gt;&lt;span style=&quot;font-size: 14px;&quot;&gt;+targetJavaVersion: String&lt;/span&gt;&lt;br style=&quot;border-color: var(--border-color); font-size: 14px;&quot;&gt;&lt;span style=&quot;font-size: 14px;&quot;&gt;+targetSdk: Int&lt;/span&gt;&lt;br style=&quot;border-color: var(--border-color); font-size: 14px;&quot;&gt;&lt;span style=&quot;font-size: 14px;&quot;&gt;+compileSdk: Int&lt;/span&gt;&lt;br style=&quot;border-color: var(--border-color); font-size: 14px;&quot;&gt;&lt;span style=&quot;font-size: 14px;&quot;&gt;+minSdk: Int&lt;/span&gt;&lt;br style=&quot;border-color: var(--border-color); font-size: 14px;&quot;&gt;&lt;span style=&quot;font-size: 14px;&quot;&gt;+versionCode: Int&lt;/span&gt;&lt;br style=&quot;border-color: var(--border-color); font-size: 14px;&quot;&gt;&lt;span style=&quot;font-size: 14px;&quot;&gt;+versionName: String&lt;/span&gt;&lt;br style=&quot;border-color: var(--border-color); font-size: 14px;&quot;&gt;&lt;span style=&quot;font-size: 14px;&quot;&gt;+appId: String&lt;/span&gt;&lt;br style=&quot;border-color: var(--border-color); font-size: 14px;&quot;&gt;&lt;br style=&quot;border-color: var(--border-color); font-size: 14px;&quot;&gt;&lt;span style=&quot;font-size: 14px;&quot;&gt;+dataBinding: Boolean&lt;/span&gt;&lt;br style=&quot;border-color: var(--border-color); font-size: 14px;&quot;&gt;&lt;span style=&quot;font-size: 14px;&quot;&gt;+viewBinding: Boolean&lt;/span&gt;&lt;br style=&quot;border-color: var(--border-color); font-size: 14px;&quot;&gt;&lt;br style=&quot;border-color: var(--border-color); font-size: 14px;&quot;&gt;&lt;span style=&quot;font-size: 14px;&quot;&gt;+jvmTarger: String&lt;/span&gt;" style="text;strokeColor=none;fillColor=none;align=left;verticalAlign=top;spacingLeft=4;spacingRight=4;overflow=hidden;points=[[0,0.5],[1,0.5]];portConstraint=eastwest;rotatable=0;whiteSpace=wrap;html=1;" vertex="1" parent="1bQ7xXCI_m404nSx6LuV-30">
          <mxGeometry y="30" width="180" height="230" as="geometry" />
        </mxCell>
        <mxCell id="1bQ7xXCI_m404nSx6LuV-34" value="&lt;b&gt;LibsVerionsDto&lt;/b&gt;" style="swimlane;fontStyle=0;childLayout=stackLayout;horizontal=1;startSize=30;horizontalStack=0;resizeParent=1;resizeParentMax=0;resizeLast=0;collapsible=1;marginBottom=0;whiteSpace=wrap;html=1;" vertex="1" parent="1">
          <mxGeometry x="660" y="750" width="160" height="70" as="geometry" />
        </mxCell>
        <mxCell id="1bQ7xXCI_m404nSx6LuV-36" value="+gradleVersion: String&lt;br style=&quot;border-color: var(--border-color); font-size: 14px;&quot;&gt;&lt;span style=&quot;font-size: 14px;&quot;&gt;+kotlinVersion: String&lt;/span&gt;" style="text;strokeColor=none;fillColor=none;align=left;verticalAlign=top;spacingLeft=4;spacingRight=4;overflow=hidden;points=[[0,0.5],[1,0.5]];portConstraint=eastwest;rotatable=0;whiteSpace=wrap;html=1;" vertex="1" parent="1bQ7xXCI_m404nSx6LuV-34">
          <mxGeometry y="30" width="160" height="40" as="geometry" />
        </mxCell>
        <mxCell id="1bQ7xXCI_m404nSx6LuV-39" value="" style="endArrow=classic;html=1;rounded=0;exitX=0.5;exitY=0;exitDx=0;exitDy=0;" edge="1" parent="1" source="1bQ7xXCI_m404nSx6LuV-6">
          <mxGeometry width="50" height="50" relative="1" as="geometry">
            <mxPoint x="390" y="450" as="sourcePoint" />
            <mxPoint x="300" y="200" as="targetPoint" />
          </mxGeometry>
        </mxCell>
        <mxCell id="1bQ7xXCI_m404nSx6LuV-40" value="" style="endArrow=classic;html=1;rounded=0;exitX=0.5;exitY=0;exitDx=0;exitDy=0;" edge="1" parent="1" source="1bQ7xXCI_m404nSx6LuV-14">
          <mxGeometry width="50" height="50" relative="1" as="geometry">
            <mxPoint x="390" y="450" as="sourcePoint" />
            <mxPoint x="315" y="540" as="targetPoint" />
          </mxGeometry>
        </mxCell>
        <mxCell id="1bQ7xXCI_m404nSx6LuV-41" value="" style="endArrow=diamondThin;endFill=1;endSize=24;html=1;rounded=0;exitX=0;exitY=0.5;exitDx=0;exitDy=0;" edge="1" parent="1" source="1bQ7xXCI_m404nSx6LuV-12">
          <mxGeometry width="160" relative="1" as="geometry">
            <mxPoint x="370" y="450" as="sourcePoint" />
            <mxPoint x="140" y="290" as="targetPoint" />
            <Array as="points">
              <mxPoint x="30" y="495" />
              <mxPoint x="30" y="289" />
            </Array>
          </mxGeometry>
        </mxCell>
        <mxCell id="ino0MLJPYsOl3QF0Kqt5-3" value="&amp;lt;&amp;lt;Interface&amp;gt;&amp;gt;&lt;br&gt;&lt;b&gt;IGitlabRepository&lt;/b&gt;" style="swimlane;fontStyle=0;childLayout=stackLayout;horizontal=1;startSize=30;horizontalStack=0;resizeParent=1;resizeParentMax=0;resizeLast=0;collapsible=1;marginBottom=0;whiteSpace=wrap;html=1;" vertex="1" parent="1">
          <mxGeometry x="840" y="40" width="600" height="120" as="geometry" />
        </mxCell>
        <mxCell id="GmFk4hsLB5Go_FKo_Ru6-87" value="+ gitlabAuth(authConfig:&amp;nbsp;&lt;span style=&quot;border-color: var(--border-color); text-align: center;&quot;&gt;GitlabAuth&lt;/span&gt;): Token" style="text;strokeColor=none;fillColor=none;align=left;verticalAlign=middle;spacingLeft=4;spacingRight=4;overflow=hidden;points=[[0,0.5],[1,0.5]];portConstraint=eastwest;rotatable=0;whiteSpace=wrap;html=1;" vertex="1" parent="ino0MLJPYsOl3QF0Kqt5-3">
          <mxGeometry y="30" width="600" height="30" as="geometry" />
        </mxCell>
        <mxCell id="GmFk4hsLB5Go_FKo_Ru6-86" value="+ createGitlabProject(token: String, repositoryConfig:&amp;nbsp;&lt;span style=&quot;border-color: var(--border-color); text-align: center;&quot;&gt;GitlabRepository, filePath: FilePath&lt;/span&gt;): Unit" style="text;strokeColor=none;fillColor=none;align=left;verticalAlign=middle;spacingLeft=4;spacingRight=4;overflow=hidden;points=[[0,0.5],[1,0.5]];portConstraint=eastwest;rotatable=0;whiteSpace=wrap;html=1;" vertex="1" parent="ino0MLJPYsOl3QF0Kqt5-3">
          <mxGeometry y="60" width="600" height="30" as="geometry" />
        </mxCell>
        <mxCell id="GmFk4hsLB5Go_FKo_Ru6-88" value="+ getGroups(token: String, gitlabHost: String): Groups" style="text;strokeColor=none;fillColor=none;align=left;verticalAlign=middle;spacingLeft=4;spacingRight=4;overflow=hidden;points=[[0,0.5],[1,0.5]];portConstraint=eastwest;rotatable=0;whiteSpace=wrap;html=1;" vertex="1" parent="ino0MLJPYsOl3QF0Kqt5-3">
          <mxGeometry y="90" width="600" height="30" as="geometry" />
        </mxCell>
        <mxCell id="ino0MLJPYsOl3QF0Kqt5-5" value="&lt;b&gt;GitlabRepository&lt;/b&gt;" style="swimlane;fontStyle=0;childLayout=stackLayout;horizontal=1;startSize=30;horizontalStack=0;resizeParent=1;resizeParentMax=0;resizeLast=0;collapsible=1;marginBottom=0;whiteSpace=wrap;html=1;" vertex="1" parent="1">
          <mxGeometry x="966" y="230" width="320" height="60" as="geometry" />
        </mxCell>
        <mxCell id="ino0MLJPYsOl3QF0Kqt5-6" value="- service:&amp;nbsp;&lt;span style=&quot;border-color: var(--border-color); text-align: center;&quot;&gt;lGitlabService&lt;/span&gt;" style="text;strokeColor=none;fillColor=none;align=left;verticalAlign=middle;spacingLeft=4;spacingRight=4;overflow=hidden;points=[[0,0.5],[1,0.5]];portConstraint=eastwest;rotatable=0;whiteSpace=wrap;html=1;" vertex="1" parent="ino0MLJPYsOl3QF0Kqt5-5">
          <mxGeometry y="30" width="320" height="30" as="geometry" />
        </mxCell>
        <mxCell id="ino0MLJPYsOl3QF0Kqt5-7" value="&amp;lt;&amp;lt;Interface&amp;gt;&amp;gt;&lt;br&gt;&lt;b&gt;lGitlabService&lt;/b&gt;" style="swimlane;fontStyle=0;childLayout=stackLayout;horizontal=1;startSize=30;horizontalStack=0;resizeParent=1;resizeParentMax=0;resizeLast=0;collapsible=1;marginBottom=0;whiteSpace=wrap;html=1;" vertex="1" parent="1">
          <mxGeometry x="946" y="390" width="564" height="150" as="geometry" />
        </mxCell>
        <mxCell id="GmFk4hsLB5Go_FKo_Ru6-17" value="+ getToken(gitlabHost: String, authData: AuthDto): TokenDto&amp;nbsp;" style="text;strokeColor=none;fillColor=none;align=left;verticalAlign=middle;spacingLeft=4;spacingRight=4;overflow=hidden;points=[[0,0.5],[1,0.5]];portConstraint=eastwest;rotatable=0;whiteSpace=wrap;html=1;" vertex="1" parent="ino0MLJPYsOl3QF0Kqt5-7">
          <mxGeometry y="30" width="564" height="30" as="geometry" />
        </mxCell>
        <mxCell id="ino0MLJPYsOl3QF0Kqt5-26" value="+ getGroups(gitlabHost: String, token: String): GroupsListDto" style="text;strokeColor=none;fillColor=none;align=left;verticalAlign=middle;spacingLeft=4;spacingRight=4;overflow=hidden;points=[[0,0.5],[1,0.5]];portConstraint=eastwest;rotatable=0;whiteSpace=wrap;html=1;" vertex="1" parent="ino0MLJPYsOl3QF0Kqt5-7">
          <mxGeometry y="60" width="564" height="30" as="geometry" />
        </mxCell>
        <mxCell id="ino0MLJPYsOl3QF0Kqt5-8" value="+ InitializeRepository(gitlabHost: String, token: String, repositoryConfig: RepositoryDto): &amp;nbsp;Unit" style="text;strokeColor=none;fillColor=none;align=left;verticalAlign=middle;spacingLeft=4;spacingRight=4;overflow=hidden;points=[[0,0.5],[1,0.5]];portConstraint=eastwest;rotatable=0;whiteSpace=wrap;html=1;" vertex="1" parent="ino0MLJPYsOl3QF0Kqt5-7">
          <mxGeometry y="90" width="564" height="30" as="geometry" />
        </mxCell>
        <mxCell id="ino0MLJPYsOl3QF0Kqt5-10" value="+ pushProject(gitlabHost: String,&amp;nbsp; token: String, pushConfig: PushDto): Unit&amp;nbsp;" style="text;strokeColor=none;fillColor=none;align=left;verticalAlign=middle;spacingLeft=4;spacingRight=4;overflow=hidden;points=[[0,0.5],[1,0.5]];portConstraint=eastwest;rotatable=0;whiteSpace=wrap;html=1;" vertex="1" parent="ino0MLJPYsOl3QF0Kqt5-7">
          <mxGeometry y="120" width="564" height="30" as="geometry" />
        </mxCell>
        <mxCell id="ino0MLJPYsOl3QF0Kqt5-11" value="&lt;b&gt;GitlabService&lt;/b&gt;" style="swimlane;fontStyle=0;childLayout=stackLayout;horizontal=1;startSize=30;horizontalStack=0;resizeParent=1;resizeParentMax=0;resizeLast=0;collapsible=1;marginBottom=0;whiteSpace=wrap;html=1;" vertex="1" parent="1">
          <mxGeometry x="1036" y="610" width="210" height="60" as="geometry" />
        </mxCell>
        <mxCell id="ino0MLJPYsOl3QF0Kqt5-19" value="&lt;b&gt;AuthDto&lt;/b&gt;" style="swimlane;fontStyle=0;childLayout=stackLayout;horizontal=1;startSize=30;horizontalStack=0;resizeParent=1;resizeParentMax=0;resizeLast=0;collapsible=1;marginBottom=0;whiteSpace=wrap;html=1;" vertex="1" parent="1">
          <mxGeometry x="1560" y="590" width="140" height="120" as="geometry" />
        </mxCell>
        <mxCell id="ino0MLJPYsOl3QF0Kqt5-20" value="+ username: String" style="text;strokeColor=none;fillColor=none;align=left;verticalAlign=middle;spacingLeft=4;spacingRight=4;overflow=hidden;points=[[0,0.5],[1,0.5]];portConstraint=eastwest;rotatable=0;whiteSpace=wrap;html=1;" vertex="1" parent="ino0MLJPYsOl3QF0Kqt5-19">
          <mxGeometry y="30" width="140" height="30" as="geometry" />
        </mxCell>
        <mxCell id="ino0MLJPYsOl3QF0Kqt5-29" value="+ password: String" style="text;strokeColor=none;fillColor=none;align=left;verticalAlign=middle;spacingLeft=4;spacingRight=4;overflow=hidden;points=[[0,0.5],[1,0.5]];portConstraint=eastwest;rotatable=0;whiteSpace=wrap;html=1;" vertex="1" parent="ino0MLJPYsOl3QF0Kqt5-19">
          <mxGeometry y="60" width="140" height="30" as="geometry" />
        </mxCell>
        <mxCell id="ino0MLJPYsOl3QF0Kqt5-30" value="+ grantType: String" style="text;strokeColor=none;fillColor=none;align=left;verticalAlign=middle;spacingLeft=4;spacingRight=4;overflow=hidden;points=[[0,0.5],[1,0.5]];portConstraint=eastwest;rotatable=0;whiteSpace=wrap;html=1;" vertex="1" parent="ino0MLJPYsOl3QF0Kqt5-19">
          <mxGeometry y="90" width="140" height="30" as="geometry" />
        </mxCell>
        <mxCell id="ino0MLJPYsOl3QF0Kqt5-21" value="&lt;b&gt;RepositoryDto&lt;/b&gt;" style="swimlane;fontStyle=0;childLayout=stackLayout;horizontal=1;startSize=30;horizontalStack=0;resizeParent=1;resizeParentMax=0;resizeLast=0;collapsible=1;marginBottom=0;whiteSpace=wrap;html=1;" vertex="1" parent="1">
          <mxGeometry x="1800" y="605" width="160" height="120" as="geometry" />
        </mxCell>
        <mxCell id="GmFk4hsLB5Go_FKo_Ru6-84" value="+ repositoryName: String" style="text;strokeColor=none;fillColor=none;align=left;verticalAlign=middle;spacingLeft=4;spacingRight=4;overflow=hidden;points=[[0,0.5],[1,0.5]];portConstraint=eastwest;rotatable=0;whiteSpace=wrap;html=1;" vertex="1" parent="ino0MLJPYsOl3QF0Kqt5-21">
          <mxGeometry y="30" width="160" height="30" as="geometry" />
        </mxCell>
        <mxCell id="ino0MLJPYsOl3QF0Kqt5-22" value="+ branchName: String" style="text;strokeColor=none;fillColor=none;align=left;verticalAlign=middle;spacingLeft=4;spacingRight=4;overflow=hidden;points=[[0,0.5],[1,0.5]];portConstraint=eastwest;rotatable=0;whiteSpace=wrap;html=1;" vertex="1" parent="ino0MLJPYsOl3QF0Kqt5-21">
          <mxGeometry y="60" width="160" height="30" as="geometry" />
        </mxCell>
        <mxCell id="GmFk4hsLB5Go_FKo_Ru6-85" value="+ groupId: Int" style="text;strokeColor=none;fillColor=none;align=left;verticalAlign=middle;spacingLeft=4;spacingRight=4;overflow=hidden;points=[[0,0.5],[1,0.5]];portConstraint=eastwest;rotatable=0;whiteSpace=wrap;html=1;" vertex="1" parent="ino0MLJPYsOl3QF0Kqt5-21">
          <mxGeometry y="90" width="160" height="30" as="geometry" />
        </mxCell>
        <mxCell id="ino0MLJPYsOl3QF0Kqt5-23" value="" style="endArrow=classic;html=1;rounded=0;exitX=0.5;exitY=0;exitDx=0;exitDy=0;" edge="1" parent="1" source="ino0MLJPYsOl3QF0Kqt5-5">
          <mxGeometry width="50" height="50" relative="1" as="geometry">
            <mxPoint x="1216" y="420" as="sourcePoint" />
            <mxPoint x="1126" y="160" as="targetPoint" />
          </mxGeometry>
        </mxCell>
        <mxCell id="ino0MLJPYsOl3QF0Kqt5-24" value="" style="endArrow=classic;html=1;rounded=0;exitX=0.5;exitY=0;exitDx=0;exitDy=0;entryX=0.346;entryY=1.065;entryDx=0;entryDy=0;entryPerimeter=0;" edge="1" parent="1" source="ino0MLJPYsOl3QF0Kqt5-11" target="ino0MLJPYsOl3QF0Kqt5-10">
          <mxGeometry width="50" height="50" relative="1" as="geometry">
            <mxPoint x="1216" y="420" as="sourcePoint" />
            <mxPoint x="1141" y="550" as="targetPoint" />
          </mxGeometry>
        </mxCell>
        <mxCell id="ino0MLJPYsOl3QF0Kqt5-25" value="" style="endArrow=diamondThin;endFill=1;endSize=24;html=1;rounded=0;exitX=0;exitY=0.5;exitDx=0;exitDy=0;" edge="1" parent="1" source="ino0MLJPYsOl3QF0Kqt5-8">
          <mxGeometry width="160" relative="1" as="geometry">
            <mxPoint x="1196" y="420" as="sourcePoint" />
            <mxPoint x="966" y="260" as="targetPoint" />
            <Array as="points">
              <mxPoint x="860" y="495" />
              <mxPoint x="860" y="260" />
            </Array>
          </mxGeometry>
        </mxCell>
        <mxCell id="ino0MLJPYsOl3QF0Kqt5-33" value="&lt;b&gt;PushDto&lt;/b&gt;" style="swimlane;fontStyle=0;childLayout=stackLayout;horizontal=1;startSize=30;horizontalStack=0;resizeParent=1;resizeParentMax=0;resizeLast=0;collapsible=1;marginBottom=0;whiteSpace=wrap;html=1;" vertex="1" parent="1">
          <mxGeometry x="1560" y="730" width="219" height="180" as="geometry" />
        </mxCell>
        <mxCell id="ino0MLJPYsOl3QF0Kqt5-35" value="+ brachName: String" style="text;strokeColor=none;fillColor=none;align=left;verticalAlign=middle;spacingLeft=4;spacingRight=4;overflow=hidden;points=[[0,0.5],[1,0.5]];portConstraint=eastwest;rotatable=0;whiteSpace=wrap;html=1;" vertex="1" parent="ino0MLJPYsOl3QF0Kqt5-33">
          <mxGeometry y="30" width="219" height="30" as="geometry" />
        </mxCell>
        <mxCell id="ino0MLJPYsOl3QF0Kqt5-37" value="+ commitMessage: String" style="text;strokeColor=none;fillColor=none;align=left;verticalAlign=middle;spacingLeft=4;spacingRight=4;overflow=hidden;points=[[0,0.5],[1,0.5]];portConstraint=eastwest;rotatable=0;whiteSpace=wrap;html=1;" vertex="1" parent="ino0MLJPYsOl3QF0Kqt5-33">
          <mxGeometry y="60" width="219" height="30" as="geometry" />
        </mxCell>
        <mxCell id="ino0MLJPYsOl3QF0Kqt5-36" value="+ content: String" style="text;strokeColor=none;fillColor=none;align=left;verticalAlign=middle;spacingLeft=4;spacingRight=4;overflow=hidden;points=[[0,0.5],[1,0.5]];portConstraint=eastwest;rotatable=0;whiteSpace=wrap;html=1;" vertex="1" parent="ino0MLJPYsOl3QF0Kqt5-33">
          <mxGeometry y="90" width="219" height="30" as="geometry" />
        </mxCell>
        <mxCell id="ino0MLJPYsOl3QF0Kqt5-39" value="+ filePath: String" style="text;strokeColor=none;fillColor=none;align=left;verticalAlign=middle;spacingLeft=4;spacingRight=4;overflow=hidden;points=[[0,0.5],[1,0.5]];portConstraint=eastwest;rotatable=0;whiteSpace=wrap;html=1;" vertex="1" parent="ino0MLJPYsOl3QF0Kqt5-33">
          <mxGeometry y="120" width="219" height="30" as="geometry" />
        </mxCell>
        <mxCell id="ino0MLJPYsOl3QF0Kqt5-40" value="+ id: Int" style="text;strokeColor=none;fillColor=none;align=left;verticalAlign=middle;spacingLeft=4;spacingRight=4;overflow=hidden;points=[[0,0.5],[1,0.5]];portConstraint=eastwest;rotatable=0;whiteSpace=wrap;html=1;" vertex="1" parent="ino0MLJPYsOl3QF0Kqt5-33">
          <mxGeometry y="150" width="219" height="30" as="geometry" />
        </mxCell>
        <mxCell id="GmFk4hsLB5Go_FKo_Ru6-1" value="&lt;font style=&quot;font-size: 12px;&quot;&gt;&lt;b&gt;AndroidParameters&lt;font style=&quot;font-size: 12px;&quot;&gt;RouteModel&lt;/font&gt;&lt;/b&gt;&lt;/font&gt;" style="swimlane;fontStyle=0;childLayout=stackLayout;horizontal=1;startSize=30;horizontalStack=0;resizeParent=1;resizeParentMax=0;resizeLast=0;collapsible=1;marginBottom=0;whiteSpace=wrap;html=1;" vertex="1" parent="1">
          <mxGeometry x="110" y="-225" width="230" height="90" as="geometry" />
        </mxCell>
        <mxCell id="GmFk4hsLB5Go_FKo_Ru6-92" value="+ buildSrc: BuildSrcRouteModel" style="text;strokeColor=none;fillColor=none;align=left;verticalAlign=middle;spacingLeft=4;spacingRight=4;overflow=hidden;points=[[0,0.5],[1,0.5]];portConstraint=eastwest;rotatable=0;whiteSpace=wrap;html=1;" vertex="1" parent="GmFk4hsLB5Go_FKo_Ru6-1">
          <mxGeometry y="30" width="230" height="30" as="geometry" />
        </mxCell>
        <mxCell id="GmFk4hsLB5Go_FKo_Ru6-93" value="+ libsVersions: LibsVersionsRouteModel" style="text;strokeColor=none;fillColor=none;align=left;verticalAlign=middle;spacingLeft=4;spacingRight=4;overflow=hidden;points=[[0,0.5],[1,0.5]];portConstraint=eastwest;rotatable=0;whiteSpace=wrap;html=1;" vertex="1" parent="GmFk4hsLB5Go_FKo_Ru6-1">
          <mxGeometry y="60" width="230" height="30" as="geometry" />
        </mxCell>
        <mxCell id="GmFk4hsLB5Go_FKo_Ru6-7" value="&lt;b&gt;GitlabAuthRouteModel&lt;/b&gt;" style="swimlane;fontStyle=0;childLayout=stackLayout;horizontal=1;startSize=30;horizontalStack=0;resizeParent=1;resizeParentMax=0;resizeLast=0;collapsible=1;marginBottom=0;whiteSpace=wrap;html=1;" vertex="1" parent="1">
          <mxGeometry x="633" y="-260" width="214" height="150" as="geometry" />
        </mxCell>
        <mxCell id="GmFk4hsLB5Go_FKo_Ru6-9" value="+ username: String" style="text;strokeColor=none;fillColor=none;align=left;verticalAlign=middle;spacingLeft=4;spacingRight=4;overflow=hidden;points=[[0,0.5],[1,0.5]];portConstraint=eastwest;rotatable=0;whiteSpace=wrap;html=1;" vertex="1" parent="GmFk4hsLB5Go_FKo_Ru6-7">
          <mxGeometry y="30" width="214" height="30" as="geometry" />
        </mxCell>
        <mxCell id="GmFk4hsLB5Go_FKo_Ru6-10" value="+ password: String" style="text;strokeColor=none;fillColor=none;align=left;verticalAlign=middle;spacingLeft=4;spacingRight=4;overflow=hidden;points=[[0,0.5],[1,0.5]];portConstraint=eastwest;rotatable=0;whiteSpace=wrap;html=1;" vertex="1" parent="GmFk4hsLB5Go_FKo_Ru6-7">
          <mxGeometry y="60" width="214" height="30" as="geometry" />
        </mxCell>
        <mxCell id="GmFk4hsLB5Go_FKo_Ru6-81" value="+ grantType: String" style="text;strokeColor=none;fillColor=none;align=left;verticalAlign=middle;spacingLeft=4;spacingRight=4;overflow=hidden;points=[[0,0.5],[1,0.5]];portConstraint=eastwest;rotatable=0;whiteSpace=wrap;html=1;" vertex="1" parent="GmFk4hsLB5Go_FKo_Ru6-7">
          <mxGeometry y="90" width="214" height="30" as="geometry" />
        </mxCell>
        <mxCell id="GmFk4hsLB5Go_FKo_Ru6-11" value="+ gitlabHost: String" style="text;strokeColor=none;fillColor=none;align=left;verticalAlign=middle;spacingLeft=4;spacingRight=4;overflow=hidden;points=[[0,0.5],[1,0.5]];portConstraint=eastwest;rotatable=0;whiteSpace=wrap;html=1;" vertex="1" parent="GmFk4hsLB5Go_FKo_Ru6-7">
          <mxGeometry y="120" width="214" height="30" as="geometry" />
        </mxCell>
        <mxCell id="GmFk4hsLB5Go_FKo_Ru6-19" value="&lt;b&gt;GitlabRepositoryRoute&lt;/b&gt;" style="swimlane;fontStyle=0;childLayout=stackLayout;horizontal=1;startSize=30;horizontalStack=0;resizeParent=1;resizeParentMax=0;resizeLast=0;collapsible=1;marginBottom=0;whiteSpace=wrap;html=1;" vertex="1" parent="1">
          <mxGeometry x="880" y="-180" width="650" height="60" as="geometry" />
        </mxCell>
        <mxCell id="GmFk4hsLB5Go_FKo_Ru6-22" value="+ createGitlabProject(token: String, repositoryConfig:&amp;nbsp;&lt;span style=&quot;border-color: var(--border-color); text-align: center;&quot;&gt;GitlabRepositoryRouteModel, filePath: FilePathRouteModel&lt;/span&gt;): Unit" style="text;strokeColor=none;fillColor=none;align=left;verticalAlign=middle;spacingLeft=4;spacingRight=4;overflow=hidden;points=[[0,0.5],[1,0.5]];portConstraint=eastwest;rotatable=0;whiteSpace=wrap;html=1;" vertex="1" parent="GmFk4hsLB5Go_FKo_Ru6-19">
          <mxGeometry y="30" width="650" height="30" as="geometry" />
        </mxCell>
        <mxCell id="GmFk4hsLB5Go_FKo_Ru6-23" value="&lt;b&gt;GetGroupsRoute&lt;/b&gt;" style="swimlane;fontStyle=0;childLayout=stackLayout;horizontal=1;startSize=30;horizontalStack=0;resizeParent=1;resizeParentMax=0;resizeLast=0;collapsible=1;marginBottom=0;whiteSpace=wrap;html=1;" vertex="1" parent="1">
          <mxGeometry x="1160" y="-90" width="390" height="60" as="geometry" />
        </mxCell>
        <mxCell id="GmFk4hsLB5Go_FKo_Ru6-24" value="+ getGroupList(token: String, gitlabHost: String): GroupsRouteModel" style="text;strokeColor=none;fillColor=none;align=left;verticalAlign=middle;spacingLeft=4;spacingRight=4;overflow=hidden;points=[[0,0.5],[1,0.5]];portConstraint=eastwest;rotatable=0;whiteSpace=wrap;html=1;" vertex="1" parent="GmFk4hsLB5Go_FKo_Ru6-23">
          <mxGeometry y="30" width="390" height="30" as="geometry" />
        </mxCell>
        <mxCell id="GmFk4hsLB5Go_FKo_Ru6-27" value="&lt;b&gt;GitlabAuthorizationRoute&lt;/b&gt;" style="swimlane;fontStyle=0;childLayout=stackLayout;horizontal=1;startSize=30;horizontalStack=0;resizeParent=1;resizeParentMax=0;resizeLast=0;collapsible=1;marginBottom=0;whiteSpace=wrap;html=1;" vertex="1" parent="1">
          <mxGeometry x="700" y="-90" width="380" height="60" as="geometry" />
        </mxCell>
        <mxCell id="GmFk4hsLB5Go_FKo_Ru6-58" value="+ gitlabAuth(authConfig:&amp;nbsp;&lt;span style=&quot;border-color: var(--border-color); text-align: center;&quot;&gt;GitlabAuthRouteModel&lt;/span&gt;): TokenRouteModel" style="text;strokeColor=none;fillColor=none;align=left;verticalAlign=middle;spacingLeft=4;spacingRight=4;overflow=hidden;points=[[0,0.5],[1,0.5]];portConstraint=eastwest;rotatable=0;whiteSpace=wrap;html=1;" vertex="1" parent="GmFk4hsLB5Go_FKo_Ru6-27">
          <mxGeometry y="30" width="380" height="30" as="geometry" />
        </mxCell>
        <mxCell id="GmFk4hsLB5Go_FKo_Ru6-31" value="&lt;b&gt;GenerateProjectRoute&lt;/b&gt;" style="swimlane;fontStyle=0;childLayout=stackLayout;horizontal=1;startSize=30;horizontalStack=0;resizeParent=1;resizeParentMax=0;resizeLast=0;collapsible=1;marginBottom=0;whiteSpace=wrap;html=1;" vertex="1" parent="1">
          <mxGeometry x="-110" width="495" height="60" as="geometry" />
        </mxCell>
        <mxCell id="GmFk4hsLB5Go_FKo_Ru6-32" value="+ createAndroidProject(parameters:&amp;nbsp;AndroidParameters&lt;font style=&quot;border-color: var(--border-color);&quot;&gt;RouteMode&lt;/font&gt;): FilePathRouteModel&amp;nbsp;" style="text;strokeColor=none;fillColor=none;align=left;verticalAlign=middle;spacingLeft=4;spacingRight=4;overflow=hidden;points=[[0,0.5],[1,0.5]];portConstraint=eastwest;rotatable=0;whiteSpace=wrap;html=1;" vertex="1" parent="GmFk4hsLB5Go_FKo_Ru6-31">
          <mxGeometry y="30" width="495" height="30" as="geometry" />
        </mxCell>
        <mxCell id="GmFk4hsLB5Go_FKo_Ru6-36" value="" style="endArrow=diamondThin;endFill=1;endSize=24;html=1;rounded=0;exitX=0.13;exitY=-0.031;exitDx=0;exitDy=0;entryX=0.576;entryY=1.085;entryDx=0;entryDy=0;entryPerimeter=0;exitPerimeter=0;" edge="1" parent="1" source="1bQ7xXCI_m404nSx6LuV-2" target="GmFk4hsLB5Go_FKo_Ru6-32">
          <mxGeometry width="160" relative="1" as="geometry">
            <mxPoint x="580" y="190" as="sourcePoint" />
            <mxPoint x="335" y="-10" as="targetPoint" />
          </mxGeometry>
        </mxCell>
        <mxCell id="GmFk4hsLB5Go_FKo_Ru6-37" value="" style="endArrow=diamondThin;endFill=1;endSize=24;html=1;rounded=0;exitX=0.272;exitY=0.006;exitDx=0;exitDy=0;exitPerimeter=0;entryX=0.799;entryY=1.041;entryDx=0;entryDy=0;entryPerimeter=0;" edge="1" parent="1" source="ino0MLJPYsOl3QF0Kqt5-3" target="GmFk4hsLB5Go_FKo_Ru6-58">
          <mxGeometry width="160" relative="1" as="geometry">
            <mxPoint x="730" y="180" as="sourcePoint" />
            <mxPoint x="1016" y="-30" as="targetPoint" />
          </mxGeometry>
        </mxCell>
        <mxCell id="GmFk4hsLB5Go_FKo_Ru6-38" value="" style="endArrow=diamondThin;endFill=1;endSize=24;html=1;rounded=0;entryX=0.385;entryY=0.958;entryDx=0;entryDy=0;entryPerimeter=0;" edge="1" parent="1" target="GmFk4hsLB5Go_FKo_Ru6-22">
          <mxGeometry width="160" relative="1" as="geometry">
            <mxPoint x="1130" y="40" as="sourcePoint" />
            <mxPoint x="890" y="180" as="targetPoint" />
          </mxGeometry>
        </mxCell>
        <mxCell id="GmFk4hsLB5Go_FKo_Ru6-39" value="" style="endArrow=diamondThin;endFill=1;endSize=24;html=1;rounded=0;exitX=0.798;exitY=-0.002;exitDx=0;exitDy=0;exitPerimeter=0;" edge="1" parent="1" source="ino0MLJPYsOl3QF0Kqt5-3">
          <mxGeometry width="160" relative="1" as="geometry">
            <mxPoint x="730" y="180" as="sourcePoint" />
            <mxPoint x="1319" y="-30" as="targetPoint" />
          </mxGeometry>
        </mxCell>
        <mxCell id="GmFk4hsLB5Go_FKo_Ru6-40" value="&lt;b&gt;DownloadProjectRoute&lt;/b&gt;" style="swimlane;fontStyle=0;childLayout=stackLayout;horizontal=1;startSize=30;horizontalStack=0;resizeParent=1;resizeParentMax=0;resizeLast=0;collapsible=1;marginBottom=0;whiteSpace=wrap;html=1;" vertex="1" parent="1">
          <mxGeometry x="250" y="-90" width="350" height="60" as="geometry" />
        </mxCell>
        <mxCell id="GmFk4hsLB5Go_FKo_Ru6-42" value="+ downloadProject(filePath: FilePathRouteModel): File" style="text;strokeColor=none;fillColor=none;align=left;verticalAlign=middle;spacingLeft=4;spacingRight=4;overflow=hidden;points=[[0,0.5],[1,0.5]];portConstraint=eastwest;rotatable=0;whiteSpace=wrap;html=1;" vertex="1" parent="GmFk4hsLB5Go_FKo_Ru6-40">
          <mxGeometry y="30" width="350" height="30" as="geometry" />
        </mxCell>
        <mxCell id="GmFk4hsLB5Go_FKo_Ru6-44" value="" style="endArrow=diamondThin;endFill=1;endSize=24;html=1;rounded=0;exitX=0.817;exitY=0.024;exitDx=0;exitDy=0;exitPerimeter=0;" edge="1" parent="1" source="1bQ7xXCI_m404nSx6LuV-2">
          <mxGeometry width="160" relative="1" as="geometry">
            <mxPoint x="350" y="180" as="sourcePoint" />
            <mxPoint x="416" y="-30" as="targetPoint" />
          </mxGeometry>
        </mxCell>
        <mxCell id="GmFk4hsLB5Go_FKo_Ru6-45" value="&lt;b&gt;GitlabRepositoryRouteModel&lt;/b&gt;" style="swimlane;fontStyle=0;childLayout=stackLayout;horizontal=1;startSize=30;horizontalStack=0;resizeParent=1;resizeParentMax=0;resizeLast=0;collapsible=1;marginBottom=0;whiteSpace=wrap;html=1;" vertex="1" parent="1">
          <mxGeometry x="1286" y="-350" width="214" height="150" as="geometry" />
        </mxCell>
        <mxCell id="GmFk4hsLB5Go_FKo_Ru6-46" value="+ gitlabHost: String" style="text;strokeColor=none;fillColor=none;align=left;verticalAlign=middle;spacingLeft=4;spacingRight=4;overflow=hidden;points=[[0,0.5],[1,0.5]];portConstraint=eastwest;rotatable=0;whiteSpace=wrap;html=1;" vertex="1" parent="GmFk4hsLB5Go_FKo_Ru6-45">
          <mxGeometry y="30" width="214" height="30" as="geometry" />
        </mxCell>
        <mxCell id="GmFk4hsLB5Go_FKo_Ru6-82" value="+ repositoryName: String" style="text;strokeColor=none;fillColor=none;align=left;verticalAlign=middle;spacingLeft=4;spacingRight=4;overflow=hidden;points=[[0,0.5],[1,0.5]];portConstraint=eastwest;rotatable=0;whiteSpace=wrap;html=1;" vertex="1" parent="GmFk4hsLB5Go_FKo_Ru6-45">
          <mxGeometry y="60" width="214" height="30" as="geometry" />
        </mxCell>
        <mxCell id="GmFk4hsLB5Go_FKo_Ru6-50" value="+ branchName: String" style="text;strokeColor=none;fillColor=none;align=left;verticalAlign=middle;spacingLeft=4;spacingRight=4;overflow=hidden;points=[[0,0.5],[1,0.5]];portConstraint=eastwest;rotatable=0;whiteSpace=wrap;html=1;" vertex="1" parent="GmFk4hsLB5Go_FKo_Ru6-45">
          <mxGeometry y="90" width="214" height="30" as="geometry" />
        </mxCell>
        <mxCell id="GmFk4hsLB5Go_FKo_Ru6-83" value="+ groupId: Int" style="text;strokeColor=none;fillColor=none;align=left;verticalAlign=middle;spacingLeft=4;spacingRight=4;overflow=hidden;points=[[0,0.5],[1,0.5]];portConstraint=eastwest;rotatable=0;whiteSpace=wrap;html=1;" vertex="1" parent="GmFk4hsLB5Go_FKo_Ru6-45">
          <mxGeometry y="120" width="214" height="30" as="geometry" />
        </mxCell>
        <mxCell id="GmFk4hsLB5Go_FKo_Ru6-59" value="&lt;b&gt;GroupsRouteModel&lt;/b&gt;" style="swimlane;fontStyle=0;childLayout=stackLayout;horizontal=1;startSize=30;horizontalStack=0;resizeParent=1;resizeParentMax=0;resizeLast=0;collapsible=1;marginBottom=0;whiteSpace=wrap;html=1;" vertex="1" parent="1">
          <mxGeometry x="1579" y="-200" width="231" height="60" as="geometry" />
        </mxCell>
        <mxCell id="GmFk4hsLB5Go_FKo_Ru6-60" value="+ groupsList: List&amp;lt;GroupRouteModel&amp;gt;" style="text;strokeColor=none;fillColor=none;align=left;verticalAlign=middle;spacingLeft=4;spacingRight=4;overflow=hidden;points=[[0,0.5],[1,0.5]];portConstraint=eastwest;rotatable=0;whiteSpace=wrap;html=1;" vertex="1" parent="GmFk4hsLB5Go_FKo_Ru6-59">
          <mxGeometry y="30" width="231" height="30" as="geometry" />
        </mxCell>
        <mxCell id="GmFk4hsLB5Go_FKo_Ru6-63" value="&lt;span style=&quot;color: rgb(0, 0, 0); font-family: Helvetica; font-size: 12px; font-style: normal; font-variant-ligatures: normal; font-variant-caps: normal; letter-spacing: normal; orphans: 2; text-align: left; text-indent: 0px; text-transform: none; widows: 2; word-spacing: 0px; -webkit-text-stroke-width: 0px; background-color: rgb(251, 251, 251); text-decoration-thickness: initial; text-decoration-style: initial; text-decoration-color: initial; float: none; display: inline !important;&quot;&gt;&lt;b&gt;GroupsListDto&lt;/b&gt;&lt;/span&gt;" style="swimlane;fontStyle=0;childLayout=stackLayout;horizontal=1;startSize=30;horizontalStack=0;resizeParent=1;resizeParentMax=0;resizeLast=0;collapsible=1;marginBottom=0;whiteSpace=wrap;html=1;" vertex="1" parent="1">
          <mxGeometry x="1560" y="510" width="170" height="60" as="geometry" />
        </mxCell>
        <mxCell id="GmFk4hsLB5Go_FKo_Ru6-66" value="+ groupsList: List&amp;lt;GroupDto&amp;gt;" style="text;strokeColor=none;fillColor=none;align=left;verticalAlign=middle;spacingLeft=4;spacingRight=4;overflow=hidden;points=[[0,0.5],[1,0.5]];portConstraint=eastwest;rotatable=0;whiteSpace=wrap;html=1;" vertex="1" parent="GmFk4hsLB5Go_FKo_Ru6-63">
          <mxGeometry y="30" width="170" height="30" as="geometry" />
        </mxCell>
        <mxCell id="GmFk4hsLB5Go_FKo_Ru6-68" value="&lt;b&gt;GroupDto&lt;/b&gt;" style="swimlane;fontStyle=0;childLayout=stackLayout;horizontal=1;startSize=30;horizontalStack=0;resizeParent=1;resizeParentMax=0;resizeLast=0;collapsible=1;marginBottom=0;whiteSpace=wrap;html=1;" vertex="1" parent="1">
          <mxGeometry x="1800" y="455" width="140" height="120" as="geometry" />
        </mxCell>
        <mxCell id="GmFk4hsLB5Go_FKo_Ru6-69" value="+&amp;nbsp;id: Int" style="text;strokeColor=none;fillColor=none;align=left;verticalAlign=middle;spacingLeft=4;spacingRight=4;overflow=hidden;points=[[0,0.5],[1,0.5]];portConstraint=eastwest;rotatable=0;whiteSpace=wrap;html=1;" vertex="1" parent="GmFk4hsLB5Go_FKo_Ru6-68">
          <mxGeometry y="30" width="140" height="30" as="geometry" />
        </mxCell>
        <mxCell id="GmFk4hsLB5Go_FKo_Ru6-70" value="+&amp;nbsp;name: String" style="text;strokeColor=none;fillColor=none;align=left;verticalAlign=middle;spacingLeft=4;spacingRight=4;overflow=hidden;points=[[0,0.5],[1,0.5]];portConstraint=eastwest;rotatable=0;whiteSpace=wrap;html=1;" vertex="1" parent="GmFk4hsLB5Go_FKo_Ru6-68">
          <mxGeometry y="60" width="140" height="30" as="geometry" />
        </mxCell>
        <mxCell id="GmFk4hsLB5Go_FKo_Ru6-73" value="+ path: String" style="text;strokeColor=none;fillColor=none;align=left;verticalAlign=middle;spacingLeft=4;spacingRight=4;overflow=hidden;points=[[0,0.5],[1,0.5]];portConstraint=eastwest;rotatable=0;whiteSpace=wrap;html=1;" vertex="1" parent="GmFk4hsLB5Go_FKo_Ru6-68">
          <mxGeometry y="90" width="140" height="30" as="geometry" />
        </mxCell>
        <mxCell id="GmFk4hsLB5Go_FKo_Ru6-77" value="&lt;b&gt;GroupRouteModel&lt;/b&gt;" style="swimlane;fontStyle=0;childLayout=stackLayout;horizontal=1;startSize=30;horizontalStack=0;resizeParent=1;resizeParentMax=0;resizeLast=0;collapsible=1;marginBottom=0;whiteSpace=wrap;html=1;" vertex="1" parent="1">
          <mxGeometry x="1590" y="-110" width="140" height="120" as="geometry" />
        </mxCell>
        <mxCell id="GmFk4hsLB5Go_FKo_Ru6-78" value="+&amp;nbsp;id: Int" style="text;strokeColor=none;fillColor=none;align=left;verticalAlign=middle;spacingLeft=4;spacingRight=4;overflow=hidden;points=[[0,0.5],[1,0.5]];portConstraint=eastwest;rotatable=0;whiteSpace=wrap;html=1;" vertex="1" parent="GmFk4hsLB5Go_FKo_Ru6-77">
          <mxGeometry y="30" width="140" height="30" as="geometry" />
        </mxCell>
        <mxCell id="GmFk4hsLB5Go_FKo_Ru6-79" value="+&amp;nbsp;name: String" style="text;strokeColor=none;fillColor=none;align=left;verticalAlign=middle;spacingLeft=4;spacingRight=4;overflow=hidden;points=[[0,0.5],[1,0.5]];portConstraint=eastwest;rotatable=0;whiteSpace=wrap;html=1;" vertex="1" parent="GmFk4hsLB5Go_FKo_Ru6-77">
          <mxGeometry y="60" width="140" height="30" as="geometry" />
        </mxCell>
        <mxCell id="GmFk4hsLB5Go_FKo_Ru6-80" value="+ path: String" style="text;strokeColor=none;fillColor=none;align=left;verticalAlign=middle;spacingLeft=4;spacingRight=4;overflow=hidden;points=[[0,0.5],[1,0.5]];portConstraint=eastwest;rotatable=0;whiteSpace=wrap;html=1;" vertex="1" parent="GmFk4hsLB5Go_FKo_Ru6-77">
          <mxGeometry y="90" width="140" height="30" as="geometry" />
        </mxCell>
        <mxCell id="GmFk4hsLB5Go_FKo_Ru6-94" value="&lt;b&gt;BuildSrcRouteModel&lt;/b&gt;" style="swimlane;fontStyle=0;childLayout=stackLayout;horizontal=1;startSize=30;horizontalStack=0;resizeParent=1;resizeParentMax=0;resizeLast=0;collapsible=1;marginBottom=0;whiteSpace=wrap;html=1;" vertex="1" parent="1">
          <mxGeometry x="-110" y="-415" width="185" height="260" as="geometry" />
        </mxCell>
        <mxCell id="GmFk4hsLB5Go_FKo_Ru6-98" value="+sourceJavaVersion: String&lt;br style=&quot;border-color: var(--border-color); font-size: 14px;&quot;&gt;&lt;span style=&quot;font-size: 14px;&quot;&gt;+targetJavaVersion: String&lt;/span&gt;&lt;br style=&quot;border-color: var(--border-color); font-size: 14px;&quot;&gt;&lt;span style=&quot;font-size: 14px;&quot;&gt;+targetSdk: Int&lt;/span&gt;&lt;br style=&quot;border-color: var(--border-color); font-size: 14px;&quot;&gt;&lt;span style=&quot;font-size: 14px;&quot;&gt;+compileSdk: Int&lt;/span&gt;&lt;br style=&quot;border-color: var(--border-color); font-size: 14px;&quot;&gt;&lt;span style=&quot;font-size: 14px;&quot;&gt;+minSdk: Int&lt;/span&gt;&lt;br style=&quot;border-color: var(--border-color); font-size: 14px;&quot;&gt;&lt;span style=&quot;font-size: 14px;&quot;&gt;+versionCode: Int&lt;/span&gt;&lt;br style=&quot;border-color: var(--border-color); font-size: 14px;&quot;&gt;&lt;span style=&quot;font-size: 14px;&quot;&gt;+versionName: String&lt;/span&gt;&lt;br style=&quot;border-color: var(--border-color); font-size: 14px;&quot;&gt;&lt;span style=&quot;font-size: 14px;&quot;&gt;+appId: String&lt;/span&gt;&lt;br style=&quot;border-color: var(--border-color); font-size: 14px;&quot;&gt;&lt;br style=&quot;border-color: var(--border-color); font-size: 14px;&quot;&gt;&lt;span style=&quot;font-size: 14px;&quot;&gt;+dataBinding: Boolean&lt;/span&gt;&lt;br style=&quot;border-color: var(--border-color); font-size: 14px;&quot;&gt;&lt;span style=&quot;font-size: 14px;&quot;&gt;+viewBinding: Boolean&lt;/span&gt;&lt;br style=&quot;border-color: var(--border-color); font-size: 14px;&quot;&gt;&lt;br style=&quot;border-color: var(--border-color); font-size: 14px;&quot;&gt;&lt;span style=&quot;font-size: 14px;&quot;&gt;+jvmTarger: String&lt;/span&gt;" style="text;strokeColor=none;fillColor=none;align=left;verticalAlign=top;spacingLeft=4;spacingRight=4;overflow=hidden;points=[[0,0.5],[1,0.5]];portConstraint=eastwest;rotatable=0;whiteSpace=wrap;html=1;" vertex="1" parent="GmFk4hsLB5Go_FKo_Ru6-94">
          <mxGeometry y="30" width="185" height="230" as="geometry" />
        </mxCell>
        <mxCell id="GmFk4hsLB5Go_FKo_Ru6-99" value="&lt;b&gt;LibsVerionsRouteModel&lt;/b&gt;" style="swimlane;fontStyle=0;childLayout=stackLayout;horizontal=1;startSize=30;horizontalStack=0;resizeParent=1;resizeParentMax=0;resizeLast=0;collapsible=1;marginBottom=0;whiteSpace=wrap;html=1;" vertex="1" parent="1">
          <mxGeometry x="110" y="-415" width="160" height="70" as="geometry" />
        </mxCell>
        <mxCell id="GmFk4hsLB5Go_FKo_Ru6-100" value="+gradleVersion: String&lt;br style=&quot;border-color: var(--border-color); font-size: 14px;&quot;&gt;&lt;span style=&quot;font-size: 14px;&quot;&gt;+kotlinVersion: String&lt;/span&gt;" style="text;strokeColor=none;fillColor=none;align=left;verticalAlign=top;spacingLeft=4;spacingRight=4;overflow=hidden;points=[[0,0.5],[1,0.5]];portConstraint=eastwest;rotatable=0;whiteSpace=wrap;html=1;" vertex="1" parent="GmFk4hsLB5Go_FKo_Ru6-99">
          <mxGeometry y="30" width="160" height="40" as="geometry" />
        </mxCell>
        <mxCell id="GmFk4hsLB5Go_FKo_Ru6-101" value="&lt;b&gt;FilePathRouteModel&lt;/b&gt;" style="swimlane;fontStyle=0;childLayout=stackLayout;horizontal=1;startSize=30;horizontalStack=0;resizeParent=1;resizeParentMax=0;resizeLast=0;collapsible=1;marginBottom=0;whiteSpace=wrap;html=1;" vertex="1" parent="1">
          <mxGeometry x="110" y="-315" width="140" height="60" as="geometry" />
        </mxCell>
        <mxCell id="GmFk4hsLB5Go_FKo_Ru6-102" value="+ filePath: String" style="text;strokeColor=none;fillColor=none;align=left;verticalAlign=middle;spacingLeft=4;spacingRight=4;overflow=hidden;points=[[0,0.5],[1,0.5]];portConstraint=eastwest;rotatable=0;whiteSpace=wrap;html=1;" vertex="1" parent="GmFk4hsLB5Go_FKo_Ru6-101">
          <mxGeometry y="30" width="140" height="30" as="geometry" />
        </mxCell>
        <mxCell id="GmFk4hsLB5Go_FKo_Ru6-104" value="&lt;b&gt;TokenDto&lt;/b&gt;" style="swimlane;fontStyle=0;childLayout=stackLayout;horizontal=1;startSize=30;horizontalStack=0;resizeParent=1;resizeParentMax=0;resizeLast=0;collapsible=1;marginBottom=0;whiteSpace=wrap;html=1;" vertex="1" parent="1">
          <mxGeometry x="1560" y="370" width="140" height="120" as="geometry" />
        </mxCell>
        <mxCell id="GmFk4hsLB5Go_FKo_Ru6-105" value="+ accessToken: String" style="text;strokeColor=none;fillColor=none;align=left;verticalAlign=middle;spacingLeft=4;spacingRight=4;overflow=hidden;points=[[0,0.5],[1,0.5]];portConstraint=eastwest;rotatable=0;whiteSpace=wrap;html=1;" vertex="1" parent="GmFk4hsLB5Go_FKo_Ru6-104">
          <mxGeometry y="30" width="140" height="30" as="geometry" />
        </mxCell>
        <mxCell id="GmFk4hsLB5Go_FKo_Ru6-106" value="+ tokenType: String" style="text;strokeColor=none;fillColor=none;align=left;verticalAlign=middle;spacingLeft=4;spacingRight=4;overflow=hidden;points=[[0,0.5],[1,0.5]];portConstraint=eastwest;rotatable=0;whiteSpace=wrap;html=1;" vertex="1" parent="GmFk4hsLB5Go_FKo_Ru6-104">
          <mxGeometry y="60" width="140" height="30" as="geometry" />
        </mxCell>
        <mxCell id="GmFk4hsLB5Go_FKo_Ru6-107" value="+ expiresIn: Int" style="text;strokeColor=none;fillColor=none;align=left;verticalAlign=middle;spacingLeft=4;spacingRight=4;overflow=hidden;points=[[0,0.5],[1,0.5]];portConstraint=eastwest;rotatable=0;whiteSpace=wrap;html=1;" vertex="1" parent="GmFk4hsLB5Go_FKo_Ru6-104">
          <mxGeometry y="90" width="140" height="30" as="geometry" />
        </mxCell>
        <mxCell id="GmFk4hsLB5Go_FKo_Ru6-108" value="&lt;b&gt;TokenRouteModel&lt;/b&gt;" style="swimlane;fontStyle=0;childLayout=stackLayout;horizontal=1;startSize=30;horizontalStack=0;resizeParent=1;resizeParentMax=0;resizeLast=0;collapsible=1;marginBottom=0;whiteSpace=wrap;html=1;" vertex="1" parent="1">
          <mxGeometry x="946" y="-330" width="140" height="120" as="geometry" />
        </mxCell>
        <mxCell id="GmFk4hsLB5Go_FKo_Ru6-109" value="+ accessToken: String" style="text;strokeColor=none;fillColor=none;align=left;verticalAlign=middle;spacingLeft=4;spacingRight=4;overflow=hidden;points=[[0,0.5],[1,0.5]];portConstraint=eastwest;rotatable=0;whiteSpace=wrap;html=1;" vertex="1" parent="GmFk4hsLB5Go_FKo_Ru6-108">
          <mxGeometry y="30" width="140" height="30" as="geometry" />
        </mxCell>
        <mxCell id="GmFk4hsLB5Go_FKo_Ru6-110" value="+ tokenType: String" style="text;strokeColor=none;fillColor=none;align=left;verticalAlign=middle;spacingLeft=4;spacingRight=4;overflow=hidden;points=[[0,0.5],[1,0.5]];portConstraint=eastwest;rotatable=0;whiteSpace=wrap;html=1;" vertex="1" parent="GmFk4hsLB5Go_FKo_Ru6-108">
          <mxGeometry y="60" width="140" height="30" as="geometry" />
        </mxCell>
        <mxCell id="GmFk4hsLB5Go_FKo_Ru6-111" value="+ expiresIn: Int" style="text;strokeColor=none;fillColor=none;align=left;verticalAlign=middle;spacingLeft=4;spacingRight=4;overflow=hidden;points=[[0,0.5],[1,0.5]];portConstraint=eastwest;rotatable=0;whiteSpace=wrap;html=1;" vertex="1" parent="GmFk4hsLB5Go_FKo_Ru6-108">
          <mxGeometry y="90" width="140" height="30" as="geometry" />
        </mxCell>
        <mxCell id="GmFk4hsLB5Go_FKo_Ru6-112" value="&lt;b&gt;Token&lt;/b&gt;" style="swimlane;fontStyle=0;childLayout=stackLayout;horizontal=1;startSize=30;horizontalStack=0;resizeParent=1;resizeParentMax=0;resizeLast=0;collapsible=1;marginBottom=0;whiteSpace=wrap;html=1;" vertex="1" parent="1">
          <mxGeometry x="1560" y="30" width="140" height="120" as="geometry" />
        </mxCell>
        <mxCell id="GmFk4hsLB5Go_FKo_Ru6-113" value="+ accessToken: String" style="text;strokeColor=none;fillColor=none;align=left;verticalAlign=middle;spacingLeft=4;spacingRight=4;overflow=hidden;points=[[0,0.5],[1,0.5]];portConstraint=eastwest;rotatable=0;whiteSpace=wrap;html=1;" vertex="1" parent="GmFk4hsLB5Go_FKo_Ru6-112">
          <mxGeometry y="30" width="140" height="30" as="geometry" />
        </mxCell>
        <mxCell id="GmFk4hsLB5Go_FKo_Ru6-114" value="+ tokenType: String" style="text;strokeColor=none;fillColor=none;align=left;verticalAlign=middle;spacingLeft=4;spacingRight=4;overflow=hidden;points=[[0,0.5],[1,0.5]];portConstraint=eastwest;rotatable=0;whiteSpace=wrap;html=1;" vertex="1" parent="GmFk4hsLB5Go_FKo_Ru6-112">
          <mxGeometry y="60" width="140" height="30" as="geometry" />
        </mxCell>
        <mxCell id="GmFk4hsLB5Go_FKo_Ru6-115" value="+ expiresIn: Int" style="text;strokeColor=none;fillColor=none;align=left;verticalAlign=middle;spacingLeft=4;spacingRight=4;overflow=hidden;points=[[0,0.5],[1,0.5]];portConstraint=eastwest;rotatable=0;whiteSpace=wrap;html=1;" vertex="1" parent="GmFk4hsLB5Go_FKo_Ru6-112">
          <mxGeometry y="90" width="140" height="30" as="geometry" />
        </mxCell>
        <mxCell id="GmFk4hsLB5Go_FKo_Ru6-116" value="&lt;b&gt;GitlabAuth&lt;/b&gt;" style="swimlane;fontStyle=0;childLayout=stackLayout;horizontal=1;startSize=30;horizontalStack=0;resizeParent=1;resizeParentMax=0;resizeLast=0;collapsible=1;marginBottom=0;whiteSpace=wrap;html=1;" vertex="1" parent="1">
          <mxGeometry x="1730" y="30" width="214" height="150" as="geometry" />
        </mxCell>
        <mxCell id="GmFk4hsLB5Go_FKo_Ru6-117" value="+ username: String" style="text;strokeColor=none;fillColor=none;align=left;verticalAlign=middle;spacingLeft=4;spacingRight=4;overflow=hidden;points=[[0,0.5],[1,0.5]];portConstraint=eastwest;rotatable=0;whiteSpace=wrap;html=1;" vertex="1" parent="GmFk4hsLB5Go_FKo_Ru6-116">
          <mxGeometry y="30" width="214" height="30" as="geometry" />
        </mxCell>
        <mxCell id="GmFk4hsLB5Go_FKo_Ru6-118" value="+ password: String" style="text;strokeColor=none;fillColor=none;align=left;verticalAlign=middle;spacingLeft=4;spacingRight=4;overflow=hidden;points=[[0,0.5],[1,0.5]];portConstraint=eastwest;rotatable=0;whiteSpace=wrap;html=1;" vertex="1" parent="GmFk4hsLB5Go_FKo_Ru6-116">
          <mxGeometry y="60" width="214" height="30" as="geometry" />
        </mxCell>
        <mxCell id="GmFk4hsLB5Go_FKo_Ru6-119" value="+ grantType: String" style="text;strokeColor=none;fillColor=none;align=left;verticalAlign=middle;spacingLeft=4;spacingRight=4;overflow=hidden;points=[[0,0.5],[1,0.5]];portConstraint=eastwest;rotatable=0;whiteSpace=wrap;html=1;" vertex="1" parent="GmFk4hsLB5Go_FKo_Ru6-116">
          <mxGeometry y="90" width="214" height="30" as="geometry" />
        </mxCell>
        <mxCell id="GmFk4hsLB5Go_FKo_Ru6-120" value="+ gitlabHost: String" style="text;strokeColor=none;fillColor=none;align=left;verticalAlign=middle;spacingLeft=4;spacingRight=4;overflow=hidden;points=[[0,0.5],[1,0.5]];portConstraint=eastwest;rotatable=0;whiteSpace=wrap;html=1;" vertex="1" parent="GmFk4hsLB5Go_FKo_Ru6-116">
          <mxGeometry y="120" width="214" height="30" as="geometry" />
        </mxCell>
        <mxCell id="GmFk4hsLB5Go_FKo_Ru6-121" value="&lt;b&gt;GitlabRepository&lt;/b&gt;" style="swimlane;fontStyle=0;childLayout=stackLayout;horizontal=1;startSize=30;horizontalStack=0;resizeParent=1;resizeParentMax=0;resizeLast=0;collapsible=1;marginBottom=0;whiteSpace=wrap;html=1;" vertex="1" parent="1">
          <mxGeometry x="1980" y="30" width="214" height="150" as="geometry" />
        </mxCell>
        <mxCell id="GmFk4hsLB5Go_FKo_Ru6-122" value="+ gitlabHost: String" style="text;strokeColor=none;fillColor=none;align=left;verticalAlign=middle;spacingLeft=4;spacingRight=4;overflow=hidden;points=[[0,0.5],[1,0.5]];portConstraint=eastwest;rotatable=0;whiteSpace=wrap;html=1;" vertex="1" parent="GmFk4hsLB5Go_FKo_Ru6-121">
          <mxGeometry y="30" width="214" height="30" as="geometry" />
        </mxCell>
        <mxCell id="GmFk4hsLB5Go_FKo_Ru6-123" value="+ repositoryName: String" style="text;strokeColor=none;fillColor=none;align=left;verticalAlign=middle;spacingLeft=4;spacingRight=4;overflow=hidden;points=[[0,0.5],[1,0.5]];portConstraint=eastwest;rotatable=0;whiteSpace=wrap;html=1;" vertex="1" parent="GmFk4hsLB5Go_FKo_Ru6-121">
          <mxGeometry y="60" width="214" height="30" as="geometry" />
        </mxCell>
        <mxCell id="GmFk4hsLB5Go_FKo_Ru6-124" value="+ branchName: String" style="text;strokeColor=none;fillColor=none;align=left;verticalAlign=middle;spacingLeft=4;spacingRight=4;overflow=hidden;points=[[0,0.5],[1,0.5]];portConstraint=eastwest;rotatable=0;whiteSpace=wrap;html=1;" vertex="1" parent="GmFk4hsLB5Go_FKo_Ru6-121">
          <mxGeometry y="90" width="214" height="30" as="geometry" />
        </mxCell>
        <mxCell id="GmFk4hsLB5Go_FKo_Ru6-125" value="+ groupId: Int" style="text;strokeColor=none;fillColor=none;align=left;verticalAlign=middle;spacingLeft=4;spacingRight=4;overflow=hidden;points=[[0,0.5],[1,0.5]];portConstraint=eastwest;rotatable=0;whiteSpace=wrap;html=1;" vertex="1" parent="GmFk4hsLB5Go_FKo_Ru6-121">
          <mxGeometry y="120" width="214" height="30" as="geometry" />
        </mxCell>
        <mxCell id="GmFk4hsLB5Go_FKo_Ru6-127" value="&lt;b&gt;Groups&lt;/b&gt;" style="swimlane;fontStyle=0;childLayout=stackLayout;horizontal=1;startSize=30;horizontalStack=0;resizeParent=1;resizeParentMax=0;resizeLast=0;collapsible=1;marginBottom=0;whiteSpace=wrap;html=1;" vertex="1" parent="1">
          <mxGeometry x="1560" y="230" width="200" height="60" as="geometry" />
        </mxCell>
        <mxCell id="GmFk4hsLB5Go_FKo_Ru6-128" value="+ groupsList: List&amp;lt;Group&amp;gt;" style="text;strokeColor=none;fillColor=none;align=left;verticalAlign=middle;spacingLeft=4;spacingRight=4;overflow=hidden;points=[[0,0.5],[1,0.5]];portConstraint=eastwest;rotatable=0;whiteSpace=wrap;html=1;" vertex="1" parent="GmFk4hsLB5Go_FKo_Ru6-127">
          <mxGeometry y="30" width="200" height="30" as="geometry" />
        </mxCell>
        <mxCell id="GmFk4hsLB5Go_FKo_Ru6-129" value="&lt;b&gt;Group&lt;/b&gt;" style="swimlane;fontStyle=0;childLayout=stackLayout;horizontal=1;startSize=30;horizontalStack=0;resizeParent=1;resizeParentMax=0;resizeLast=0;collapsible=1;marginBottom=0;whiteSpace=wrap;html=1;" vertex="1" parent="1">
          <mxGeometry x="1804" y="230" width="140" height="120" as="geometry" />
        </mxCell>
        <mxCell id="GmFk4hsLB5Go_FKo_Ru6-130" value="+&amp;nbsp;id: Int" style="text;strokeColor=none;fillColor=none;align=left;verticalAlign=middle;spacingLeft=4;spacingRight=4;overflow=hidden;points=[[0,0.5],[1,0.5]];portConstraint=eastwest;rotatable=0;whiteSpace=wrap;html=1;" vertex="1" parent="GmFk4hsLB5Go_FKo_Ru6-129">
          <mxGeometry y="30" width="140" height="30" as="geometry" />
        </mxCell>
        <mxCell id="GmFk4hsLB5Go_FKo_Ru6-131" value="+&amp;nbsp;name: String" style="text;strokeColor=none;fillColor=none;align=left;verticalAlign=middle;spacingLeft=4;spacingRight=4;overflow=hidden;points=[[0,0.5],[1,0.5]];portConstraint=eastwest;rotatable=0;whiteSpace=wrap;html=1;" vertex="1" parent="GmFk4hsLB5Go_FKo_Ru6-129">
          <mxGeometry y="60" width="140" height="30" as="geometry" />
        </mxCell>
        <mxCell id="GmFk4hsLB5Go_FKo_Ru6-132" value="+ path: String" style="text;strokeColor=none;fillColor=none;align=left;verticalAlign=middle;spacingLeft=4;spacingRight=4;overflow=hidden;points=[[0,0.5],[1,0.5]];portConstraint=eastwest;rotatable=0;whiteSpace=wrap;html=1;" vertex="1" parent="GmFk4hsLB5Go_FKo_Ru6-129">
          <mxGeometry y="90" width="140" height="30" as="geometry" />
        </mxCell>
      </root>
    </mxGraphModel>
  </diagram>
</mxfile>
